<svg width="144" height="39" viewBox="0 0 144 39" fill="none" xmlns="http://www.w3.org/2000/svg">
<path d="M15.752 4.016V4.976C14.664 5.008 13.832 5.136 13.256 5.36C12.712 5.552 12.344 5.936 12.152 6.512C11.96 7.056 11.864 7.92 11.864 9.104V33.488C11.864 34.48 11.928 35.216 12.056 35.696C12.216 36.176 12.504 36.496 12.92 36.656C13.368 36.816 14.024 36.896 14.888 36.896H17.24C18.328 36.896 19.352 36.64 20.312 36.128C21.272 35.616 22.136 34.896 22.904 33.968C23.672 33.008 24.312 31.872 24.824 30.56C25.336 29.248 25.72 27.792 25.976 26.192H27.08C26.984 27.28 26.936 28.688 26.936 30.416C26.936 31.152 26.952 32.224 26.984 33.632C27.016 35.04 27.112 36.496 27.272 38C25.64 37.936 23.8 37.904 21.752 37.904C19.704 37.872 17.88 37.856 16.28 37.856C15.48 37.856 14.456 37.856 13.208 37.856C11.96 37.856 10.616 37.872 9.176 37.904C7.736 37.904 6.28 37.92 4.808 37.952C3.336 37.952 1.944 37.968 0.632 38V37.04C1.656 36.976 2.424 36.848 2.936 36.656C3.448 36.464 3.784 36.08 3.944 35.504C4.136 34.928 4.232 34.064 4.232 32.912V9.104C4.232 7.92 4.136 7.056 3.944 6.512C3.784 5.936 3.432 5.552 2.888 5.36C2.376 5.136 1.624 5.008 0.632 4.976V4.016C1.432 4.048 2.504 4.08 3.848 4.112C5.224 4.144 6.68 4.16 8.216 4.16C9.624 4.16 11 4.144 12.344 4.112C13.72 4.08 14.856 4.048 15.752 4.016ZM53.3998 12.656V32.768C53.3998 34.208 53.6238 35.28 54.0718 35.984C54.5198 36.656 55.3198 36.992 56.4718 36.992V38C55.4798 37.904 54.4878 37.856 53.4958 37.856C52.1518 37.856 50.9038 37.904 49.7518 38C48.5998 38.096 47.5118 38.272 46.4878 38.528V34.208C45.7198 35.808 44.6478 36.96 43.2718 37.664C41.9278 38.336 40.4238 38.672 38.7598 38.672C37.4158 38.672 36.3278 38.496 35.4958 38.144C34.6638 37.792 34.0078 37.344 33.5278 36.8C32.9838 36.192 32.5998 35.392 32.3758 34.4C32.1518 33.408 32.0398 32.128 32.0398 30.56V18.416C32.0398 16.976 31.8158 15.92 31.3678 15.248C30.9518 14.544 30.1518 14.192 28.9678 14.192V13.184C29.9918 13.28 30.9838 13.328 31.9438 13.328C33.2878 13.328 34.5358 13.28 35.6878 13.184C36.8718 13.056 37.9598 12.88 38.9518 12.656V32.528C38.9518 33.328 39.0158 34.032 39.1438 34.64C39.3038 35.248 39.5918 35.728 40.0078 36.08C40.4238 36.4 41.0318 36.56 41.8318 36.56C42.6958 36.56 43.4638 36.32 44.1358 35.84C44.8398 35.36 45.3998 34.704 45.8158 33.872C46.2638 33.008 46.4878 32.048 46.4878 30.992V18.416C46.4878 16.976 46.2638 15.92 45.8158 15.248C45.3998 14.544 44.5998 14.192 43.4158 14.192V13.184C44.4398 13.28 45.4318 13.328 46.3918 13.328C47.7358 13.328 48.9838 13.28 50.1358 13.184C51.3198 13.056 52.4078 12.88 53.3998 12.656ZM68.1091 12.512C69.4531 12.512 70.6211 12.688 71.6131 13.04C72.6371 13.36 73.3731 13.68 73.8211 14C74.9091 14.736 75.5811 14.256 75.8371 12.56H76.8451C76.7811 13.456 76.7331 14.56 76.7011 15.872C76.6691 17.152 76.6531 18.864 76.6531 21.008H75.6451C75.4851 19.824 75.1811 18.656 74.7331 17.504C74.2851 16.352 73.6291 15.408 72.7651 14.672C71.9331 13.936 70.8451 13.568 69.5011 13.568C68.5731 13.568 67.7891 13.84 67.1491 14.384C66.5091 14.896 66.1891 15.648 66.1891 16.64C66.1891 17.6 66.4771 18.448 67.0531 19.184C67.6291 19.888 68.3651 20.576 69.2611 21.248C70.1891 21.888 71.1491 22.576 72.1411 23.312C73.1971 24.112 74.1571 24.912 75.0211 25.712C75.8851 26.48 76.5731 27.328 77.0851 28.256C77.5971 29.184 77.8531 30.288 77.8531 31.568C77.8531 33.008 77.4371 34.272 76.6051 35.36C75.7731 36.416 74.6691 37.232 73.2931 37.808C71.9491 38.384 70.4451 38.672 68.7811 38.672C67.8211 38.672 66.9571 38.576 66.1891 38.384C65.4531 38.192 64.8131 37.952 64.2691 37.664C63.8531 37.472 63.4531 37.296 63.0691 37.136C62.7171 36.944 62.3811 36.784 62.0611 36.656C61.7411 36.56 61.4531 36.672 61.1971 36.992C60.9731 37.312 60.7971 37.76 60.6691 38.336H59.6611C59.7251 37.312 59.7731 36.064 59.8051 34.592C59.8371 33.12 59.8531 31.168 59.8531 28.736H60.8611C61.0531 30.464 61.4051 32 61.9171 33.344C62.4291 34.656 63.1171 35.696 63.9811 36.464C64.8771 37.2 65.9971 37.568 67.3411 37.568C67.8851 37.568 68.4131 37.456 68.9251 37.232C69.4371 37.008 69.8531 36.64 70.1731 36.128C70.5251 35.616 70.7011 34.96 70.7011 34.16C70.7011 32.752 70.2371 31.584 69.3091 30.656C68.4131 29.728 67.2611 28.72 65.8531 27.632C64.8291 26.8 63.8531 25.984 62.9251 25.184C62.0291 24.352 61.2931 23.456 60.7171 22.496C60.1411 21.504 59.8531 20.384 59.8531 19.136C59.8531 17.696 60.2371 16.48 61.0051 15.488C61.7731 14.496 62.7811 13.76 64.0291 13.28C65.3091 12.768 66.6691 12.512 68.1091 12.512ZM93.257 12.512C94.505 12.512 95.641 12.656 96.665 12.944C97.721 13.2 98.585 13.536 99.257 13.952C100.089 14.464 100.729 15.104 101.177 15.872C101.657 16.608 101.897 17.472 101.897 18.464C101.897 19.584 101.545 20.512 100.841 21.248C100.137 21.952 99.225 22.304 98.105 22.304C96.985 22.304 96.089 21.984 95.417 21.344C94.745 20.704 94.409 19.84 94.409 18.752C94.409 17.728 94.729 16.88 95.369 16.208C96.009 15.504 96.745 15.04 97.577 14.816C97.321 14.496 96.937 14.224 96.425 14C95.913 13.776 95.337 13.664 94.697 13.664C93.705 13.664 92.825 13.952 92.057 14.528C91.321 15.104 90.697 15.904 90.185 16.928C89.673 17.952 89.273 19.152 88.985 20.528C88.729 21.904 88.601 23.408 88.601 25.04C88.601 27.504 88.905 29.44 89.513 30.848C90.153 32.256 90.953 33.248 91.913 33.824C92.905 34.4 93.929 34.688 94.985 34.688C95.593 34.688 96.249 34.592 96.953 34.4C97.689 34.208 98.425 33.824 99.161 33.248C99.929 32.672 100.633 31.856 101.273 30.8L102.089 31.088C101.737 32.272 101.161 33.456 100.361 34.64C99.561 35.824 98.521 36.8 97.241 37.568C95.961 38.304 94.393 38.672 92.537 38.672C90.457 38.672 88.569 38.224 86.873 37.328C85.209 36.4 83.865 34.992 82.841 33.104C81.849 31.184 81.353 28.72 81.353 25.712C81.353 22.832 81.865 20.416 82.889 18.464C83.945 16.48 85.369 14.992 87.161 14C88.953 13.008 90.985 12.512 93.257 12.512ZM114.334 0.463997V16.976C115.134 15.312 116.206 14.16 117.549 13.52C118.926 12.848 120.462 12.512 122.158 12.512C123.534 12.512 124.638 12.688 125.47 13.04C126.302 13.36 126.958 13.808 127.438 14.384C127.982 14.992 128.366 15.776 128.59 16.736C128.846 17.696 128.974 18.992 128.974 20.624V33.536C128.974 34.88 129.198 35.792 129.646 36.272C130.126 36.752 130.926 36.992 132.046 36.992V38C131.438 37.968 130.51 37.936 129.262 37.904C128.046 37.84 126.862 37.808 125.71 37.808C124.462 37.808 123.246 37.84 122.062 37.904C120.91 37.936 120.046 37.968 119.47 38V36.992C120.43 36.992 121.102 36.752 121.486 36.272C121.87 35.792 122.062 34.88 122.062 33.536V18.608C122.062 17.808 121.982 17.12 121.822 16.544C121.662 15.936 121.358 15.472 120.91 15.152C120.494 14.8 119.886 14.624 119.086 14.624C118.222 14.624 117.422 14.864 116.686 15.344C115.982 15.792 115.406 16.432 114.958 17.264C114.542 18.096 114.334 19.056 114.334 20.144V33.536C114.334 34.88 114.526 35.792 114.91 36.272C115.294 36.752 115.966 36.992 116.926 36.992V38C116.35 37.968 115.502 37.936 114.382 37.904C113.262 37.84 112.126 37.808 110.974 37.808C109.726 37.808 108.462 37.84 107.182 37.904C105.934 37.936 104.99 37.968 104.35 38V36.992C105.47 36.992 106.254 36.752 106.702 36.272C107.182 35.792 107.422 34.88 107.422 33.536V6.224C107.422 4.784 107.198 3.728 106.75 3.056C106.334 2.352 105.534 2 104.35 2V0.991999C105.374 1.088 106.366 1.136 107.326 1.136C108.638 1.136 109.886 1.088 111.07 0.991999C112.254 0.863998 113.342 0.687998 114.334 0.463997Z" fill="#141414"/>
<path d="M139.121 31.28C140.369 31.28 141.361 31.616 142.097 32.288C142.833 32.928 143.201 33.824 143.201 34.976C143.201 36.128 142.833 37.04 142.097 37.712C141.361 38.352 140.369 38.672 139.121 38.672C137.873 38.672 136.881 38.352 136.145 37.712C135.409 37.04 135.041 36.128 135.041 34.976C135.041 33.824 135.409 32.928 136.145 32.288C136.881 31.616 137.873 31.28 139.121 31.28Z" fill="url(#paint0_linear_303_9)"/>
<defs>
<linearGradient id="paint0_linear_303_9" x1="72.5" y1="-12" x2="72.5" y2="48" gradientUnits="userSpaceOnUse">
<stop stop-color="#FF39B0"/>
<stop offset="1" stop-color="#DA1CC1"/>
</linearGradient>
</defs>
</svg>
